<svg width="28" height="34" viewBox="0 0 28 34" fill="none" xmlns="http://www.w3.org/2000/svg">
<path fill-rule="evenodd" clip-rule="evenodd" d="M9.67646 1.81783C10.2947 0.890499 11.3355 0.333496 12.45 0.333496H15.5487C16.6632 0.333496 17.704 0.8905 18.3222 1.81783L19.8327 4.0835H26.0827C26.773 4.0835 27.3327 4.64314 27.3327 5.3335C27.3327 6.02385 26.773 6.5835 26.0827 6.5835H1.91602C1.22566 6.5835 0.666016 6.02385 0.666016 5.3335C0.666016 4.64314 1.22566 4.0835 1.91602 4.0835H8.16602L9.67646 1.81783ZM18.9993 33.6668H8.99935C5.31745 33.6668 2.33268 30.6821 2.33268 27.0002V8.66683H25.666V27.0002C25.666 30.6821 22.6812 33.6668 18.9993 33.6668ZM10.666 14.0835C11.3564 14.0835 11.916 14.6431 11.916 15.3335V27.0002C11.916 27.6905 11.3564 28.2502 10.666 28.2502C9.97566 28.2502 9.41602 27.6905 9.41602 27.0002V15.3335C9.41602 14.6431 9.97566 14.0835 10.666 14.0835ZM17.3327 14.0835C18.023 14.0835 18.5827 14.6431 18.5827 15.3335V27.0002C18.5827 27.6905 18.023 28.2502 17.3327 28.2502C16.6423 28.2502 16.0827 27.6905 16.0827 27.0002V15.3335C16.0827 14.6431 16.6423 14.0835 17.3327 14.0835Z" fill="white"/>
</svg>
