<svg width="147" height="44" viewBox="0 0 147 44" fill="none" xmlns="http://www.w3.org/2000/svg">
<path d="M3 39V5C3 3.89543 3.89543 3 5 3H39C40.1046 3 41 3.89543 41 5V39C41 40.1046 40.1046 41 39 41H5C3.89543 41 3 40.1046 3 39Z" stroke="#292D32" stroke-width="6"/>
<path d="M138.98 32C138.011 32 137.154 31.8426 136.409 31.5278C135.683 31.1944 135.077 30.7315 134.593 30.1389C134.108 29.5463 133.736 28.8519 133.475 28.0556C133.214 27.2407 133.065 26.3519 133.028 25.3889C133.009 25.0556 133 24.7593 133 24.5C133 24.2222 133.009 23.9167 133.028 23.5833C133.065 22.6574 133.205 21.7963 133.447 21C133.708 20.2037 134.081 19.5093 134.565 18.9167C135.068 18.3056 135.683 17.8333 136.409 17.5C137.154 17.1667 138.011 17 138.98 17C139.986 17 140.834 17.1759 141.523 17.5278C142.231 17.8611 142.818 18.2963 143.283 18.8333V12.6667C143.283 12.4815 143.339 12.3241 143.451 12.1944C143.582 12.0648 143.749 12 143.954 12H146.329C146.516 12 146.674 12.0648 146.804 12.1944C146.935 12.3241 147 12.4815 147 12.6667V31.0556C147 31.2407 146.935 31.3981 146.804 31.5278C146.674 31.6574 146.516 31.7222 146.329 31.7222H144.122C143.917 31.7222 143.749 31.6574 143.619 31.5278C143.507 31.3981 143.451 31.2407 143.451 31.0556V30.0278C142.985 30.6019 142.389 31.0741 141.663 31.4444C140.955 31.8148 140.061 32 138.98 32ZM140.014 29.0278C140.796 29.0278 141.42 28.8519 141.886 28.5C142.352 28.1481 142.697 27.7037 142.92 27.1667C143.144 26.6111 143.265 26.0463 143.283 25.4722C143.302 25.1389 143.311 24.787 143.311 24.4167C143.311 24.0278 143.302 23.6667 143.283 23.3333C143.265 22.7778 143.134 22.25 142.892 21.75C142.65 21.2315 142.296 20.8056 141.83 20.4722C141.365 20.1389 140.759 19.9722 140.014 19.9722C139.232 19.9722 138.607 20.1481 138.142 20.5C137.695 20.8333 137.369 21.2778 137.164 21.8333C136.959 22.3889 136.838 23 136.8 23.6667C136.782 24.2222 136.782 24.7778 136.8 25.3333C136.838 26 136.959 26.6111 137.164 27.1667C137.369 27.7222 137.695 28.1759 138.142 28.5278C138.607 28.8611 139.232 29.0278 140.014 29.0278Z" fill="#292D32"/>
<path d="M123.8 32C123.61 32 123.448 31.9357 123.314 31.8072C123.181 31.6786 123.114 31.5225 123.114 31.3388V18.3361C123.114 18.1524 123.181 17.9963 123.314 17.8678C123.448 17.7392 123.61 17.6749 123.8 17.6749H126.171C126.381 17.6749 126.543 17.7392 126.657 17.8678C126.79 17.9963 126.857 18.1524 126.857 18.3361V31.3388C126.857 31.5225 126.79 31.6786 126.657 31.8072C126.543 31.9357 126.381 32 126.171 32H123.8ZM123.686 15.3058C123.476 15.3058 123.305 15.2507 123.171 15.1405C123.057 15.0119 123 14.8466 123 14.6446V12.6612C123 12.4775 123.057 12.3214 123.171 12.1928C123.305 12.0643 123.476 12 123.686 12H126.286C126.495 12 126.667 12.0643 126.8 12.1928C126.933 12.3214 127 12.4775 127 12.6612V14.6446C127 14.8466 126.933 15.0119 126.8 15.1405C126.667 15.2507 126.495 15.3058 126.286 15.3058H123.686Z" fill="#292D32"/>
<path d="M109.011 32C108.726 32 108.513 31.9372 108.37 31.8115C108.246 31.6679 108.139 31.5064 108.05 31.3269L103.053 18.8346C103.018 18.7449 103 18.6641 103 18.5923C103 18.4308 103.053 18.2962 103.16 18.1885C103.285 18.0628 103.427 18 103.588 18H105.752C105.966 18 106.126 18.0628 106.233 18.1885C106.34 18.2962 106.411 18.4038 106.447 18.5115L110 27.9615L113.553 18.5115C113.589 18.4038 113.66 18.2962 113.767 18.1885C113.874 18.0628 114.034 18 114.248 18H116.439C116.581 18 116.706 18.0628 116.813 18.1885C116.938 18.2962 117 18.4308 117 18.5923C117 18.6641 116.991 18.7449 116.973 18.8346L111.95 31.3269C111.879 31.5064 111.772 31.6679 111.63 31.8115C111.487 31.9372 111.274 32 110.989 32H109.011Z" fill="#292D32"/>
<path d="M90.0419 32C89.0971 32 88.2432 31.8148 87.4801 31.4444C86.717 31.0556 86.1083 30.5463 85.6541 29.9167C85.218 29.2685 85 28.5463 85 27.75C85 26.4537 85.5087 25.4259 86.5262 24.6667C87.5618 23.8889 88.9245 23.3704 90.6143 23.1111L94.348 22.5556V21.9722C94.348 21.1944 94.1572 20.5926 93.7757 20.1667C93.3941 19.7407 92.74 19.5278 91.8134 19.5278C91.1593 19.5278 90.6233 19.6667 90.2055 19.9444C89.8057 20.2037 89.5059 20.5556 89.3061 21C89.1607 21.2407 88.9518 21.3611 88.6792 21.3611H86.5262C86.3263 21.3611 86.1719 21.3056 86.0629 21.1944C85.972 21.0833 85.9266 20.9352 85.9266 20.75C85.9448 20.4537 86.0629 20.0926 86.2809 19.6667C86.499 19.2407 86.8442 18.8333 87.3166 18.4444C87.789 18.037 88.3976 17.6944 89.1426 17.4167C89.8875 17.1389 90.7869 17 91.8407 17C92.9853 17 93.9483 17.1481 94.7296 17.4444C95.529 17.7222 96.1649 18.1019 96.6373 18.5833C97.1097 19.0648 97.4549 19.6296 97.673 20.2778C97.891 20.9259 98 21.6111 98 22.3333V31.0556C98 31.2407 97.9364 31.3981 97.8092 31.5278C97.682 31.6574 97.5276 31.7222 97.3459 31.7222H95.1384C94.9385 31.7222 94.775 31.6574 94.6478 31.5278C94.5388 31.3981 94.4843 31.2407 94.4843 31.0556V29.9722C94.2481 30.3241 93.9301 30.6574 93.5304 30.9722C93.1307 31.2685 92.6401 31.5185 92.0587 31.7222C91.4955 31.9074 90.8232 32 90.0419 32ZM90.9686 29.3611C91.6045 29.3611 92.1768 29.2222 92.6855 28.9444C93.2124 28.6667 93.6212 28.2407 93.9119 27.6667C94.2208 27.0741 94.3753 26.3333 94.3753 25.4444V24.8611L91.6499 25.3056C90.5779 25.4722 89.7785 25.7407 89.2516 26.1111C88.7247 26.4815 88.4612 26.9352 88.4612 27.4722C88.4612 27.8796 88.5793 28.2315 88.8155 28.5278C89.0699 28.8056 89.3878 29.0185 89.7694 29.1667C90.1509 29.2963 90.5507 29.3611 90.9686 29.3611Z" fill="#292D32"/>
<path d="M71.6372 32C71.4602 32 71.3097 31.9372 71.1858 31.8115C71.0619 31.6859 71 31.5333 71 31.3538V18.6731C71 18.4756 71.0619 18.3141 71.1858 18.1885C71.3097 18.0628 71.4602 18 71.6372 18H73.7876C73.9646 18 74.115 18.0628 74.2389 18.1885C74.3805 18.3141 74.4513 18.4756 74.4513 18.6731V19.7769C74.8584 19.2026 75.3805 18.7628 76.0177 18.4577C76.6726 18.1526 77.4248 18 78.2743 18H79.3628C79.5575 18 79.708 18.0628 79.8142 18.1885C79.9381 18.3141 80 18.4667 80 18.6462V20.5846C80 20.7641 79.9381 20.9167 79.8142 21.0423C79.708 21.1679 79.5575 21.2308 79.3628 21.2308H77.292C76.4425 21.2308 75.7788 21.4731 75.3009 21.9577C74.8407 22.4423 74.6106 23.1064 74.6106 23.95V31.3538C74.6106 31.5333 74.5487 31.6859 74.4248 31.8115C74.3009 31.9372 74.1416 32 73.9469 32H71.6372Z" fill="#292D32"/>
<path d="M58.2522 32C58.0733 32 57.9213 31.9367 57.7961 31.81C57.6708 31.6833 57.6082 31.5295 57.6082 31.3486V16.3386H52.644C52.4651 16.3386 52.3131 16.2752 52.1878 16.1486C52.0626 16.0219 52 15.8681 52 15.6871V13.6786C52 13.4795 52.0626 13.3167 52.1878 13.19C52.3131 13.0633 52.4651 13 52.644 13H66.3292C66.5259 13 66.6869 13.0633 66.8122 13.19C66.9374 13.3167 67 13.4795 67 13.6786V15.6871C67 15.8681 66.9374 16.0219 66.8122 16.1486C66.6869 16.2752 66.5259 16.3386 66.3292 16.3386H61.3918V31.3486C61.3918 31.5295 61.3292 31.6833 61.2039 31.81C61.0787 31.9367 60.9177 32 60.7209 32H58.2522Z" fill="#292D32"/>
</svg>
