<svg width="100" height="30" viewBox="0 0 100 30" fill="none" xmlns="http://www.w3.org/2000/svg">
<path d="M2.04545 26.5909V3.40909C2.04545 2.65598 2.65598 2.04545 3.40909 2.04545H26.5909C27.344 2.04545 27.9545 2.65598 27.9545 3.40909V26.5909C27.9545 27.344 27.344 27.9545 26.5909 27.9545H3.40909C2.65598 27.9545 2.04545 27.344 2.04545 26.5909Z" stroke="#292D32" stroke-width="4.09091"/>
<path d="M41.2828 21L35.8468 8.4H38.9968L43.7488 19.56H41.8948L46.7188 8.4H49.6168L44.1628 21H41.2828ZM50.629 21V11.316H53.437V21H50.629ZM52.033 9.966C51.517 9.966 51.097 9.816 50.773 9.516C50.449 9.216 50.287 8.844 50.287 8.4C50.287 7.956 50.449 7.584 50.773 7.284C51.097 6.984 51.517 6.834 52.033 6.834C52.549 6.834 52.969 6.978 53.293 7.266C53.617 7.542 53.779 7.902 53.779 8.346C53.779 8.814 53.617 9.204 53.293 9.516C52.981 9.816 52.561 9.966 52.033 9.966ZM59.3011 21.144C58.4731 21.144 57.6751 21.048 56.9071 20.856C56.1511 20.652 55.5511 20.4 55.1071 20.1L56.0431 18.084C56.4871 18.36 57.0091 18.588 57.6091 18.768C58.2211 18.936 58.8211 19.02 59.4091 19.02C60.0571 19.02 60.5131 18.942 60.7771 18.786C61.0531 18.63 61.1911 18.414 61.1911 18.138C61.1911 17.91 61.0831 17.742 60.8671 17.634C60.6631 17.514 60.3871 17.424 60.0391 17.364C59.6911 17.304 59.3071 17.244 58.8871 17.184C58.4791 17.124 58.0651 17.046 57.6451 16.95C57.2251 16.842 56.8411 16.686 56.4931 16.482C56.1451 16.278 55.8631 16.002 55.6471 15.654C55.4431 15.306 55.3411 14.856 55.3411 14.304C55.3411 13.692 55.5151 13.152 55.8631 12.684C56.2231 12.216 56.7391 11.85 57.4111 11.586C58.0831 11.31 58.8871 11.172 59.8231 11.172C60.4831 11.172 61.1551 11.244 61.8391 11.388C62.5231 11.532 63.0931 11.742 63.5491 12.018L62.6131 14.016C62.1451 13.74 61.6711 13.554 61.1911 13.458C60.7231 13.35 60.2671 13.296 59.8231 13.296C59.1991 13.296 58.7431 13.38 58.4551 13.548C58.1671 13.716 58.0231 13.932 58.0231 14.196C58.0231 14.436 58.1251 14.616 58.3291 14.736C58.5451 14.856 58.8271 14.952 59.1751 15.024C59.5231 15.096 59.9011 15.162 60.3091 15.222C60.7291 15.27 61.1491 15.348 61.5691 15.456C61.9891 15.564 62.3671 15.72 62.7031 15.924C63.0511 16.116 63.3331 16.386 63.5491 16.734C63.7651 17.07 63.8731 17.514 63.8731 18.066C63.8731 18.666 63.6931 19.2 63.3331 19.668C62.9731 20.124 62.4511 20.484 61.7671 20.748C61.0951 21.012 60.2731 21.144 59.3011 21.144ZM65.6056 21V11.316H68.4136V21H65.6056ZM67.0096 9.966C66.4936 9.966 66.0736 9.816 65.7496 9.516C65.4256 9.216 65.2636 8.844 65.2636 8.4C65.2636 7.956 65.4256 7.584 65.7496 7.284C66.0736 6.984 66.4936 6.834 67.0096 6.834C67.5256 6.834 67.9456 6.978 68.2696 7.266C68.5936 7.542 68.7556 7.902 68.7556 8.346C68.7556 8.814 68.5936 9.204 68.2696 9.516C67.9576 9.816 67.5376 9.966 67.0096 9.966ZM74.9796 21.144C73.8396 21.144 72.9516 20.856 72.3156 20.28C71.6796 19.692 71.3616 18.822 71.3616 17.67V9.174H74.1696V17.634C74.1696 18.042 74.2776 18.36 74.4936 18.588C74.7096 18.804 75.0036 18.912 75.3756 18.912C75.8196 18.912 76.1976 18.792 76.5096 18.552L77.2656 20.532C76.9776 20.736 76.6296 20.892 76.2216 21C75.8256 21.096 75.4116 21.144 74.9796 21.144ZM69.8676 13.692V11.532H76.5816V13.692H69.8676ZM83.2231 21.144C82.1791 21.144 81.2491 20.934 80.4331 20.514C79.6171 20.082 78.9751 19.488 78.5071 18.732C78.0511 17.976 77.8231 17.118 77.8231 16.158C77.8231 15.186 78.0511 14.328 78.5071 13.584C78.9751 12.828 79.6171 12.24 80.4331 11.82C81.2491 11.388 82.1791 11.172 83.2231 11.172C84.2431 11.172 85.1311 11.388 85.8871 11.82C86.6431 12.24 87.2011 12.846 87.5611 13.638L85.3831 14.808C85.1311 14.352 84.8131 14.016 84.4291 13.8C84.0571 13.584 83.6491 13.476 83.2051 13.476C82.7251 13.476 82.2931 13.584 81.9091 13.8C81.5251 14.016 81.2191 14.322 80.9911 14.718C80.7751 15.114 80.6671 15.594 80.6671 16.158C80.6671 16.722 80.7751 17.202 80.9911 17.598C81.2191 17.994 81.5251 18.3 81.9091 18.516C82.2931 18.732 82.7251 18.84 83.2051 18.84C83.6491 18.84 84.0571 18.738 84.4291 18.534C84.8131 18.318 85.1311 17.976 85.3831 17.508L87.5611 18.696C87.2011 19.476 86.6431 20.082 85.8871 20.514C85.1311 20.934 84.2431 21.144 83.2231 21.144ZM95.1178 21V19.11L94.9378 18.696V15.312C94.9378 14.712 94.7518 14.244 94.3798 13.908C94.0198 13.572 93.4618 13.404 92.7058 13.404C92.1898 13.404 91.6798 13.488 91.1758 13.656C90.6838 13.812 90.2638 14.028 89.9158 14.304L88.9078 12.342C89.4358 11.97 90.0718 11.682 90.8158 11.478C91.5598 11.274 92.3158 11.172 93.0838 11.172C94.5598 11.172 95.7058 11.52 96.5218 12.216C97.3378 12.912 97.7458 13.998 97.7458 15.474V21H95.1178ZM92.1658 21.144C91.4098 21.144 90.7618 21.018 90.2218 20.766C89.6818 20.502 89.2678 20.148 88.9798 19.704C88.6918 19.26 88.5478 18.762 88.5478 18.21C88.5478 17.634 88.6858 17.13 88.9618 16.698C89.2498 16.266 89.6998 15.93 90.3118 15.69C90.9238 15.438 91.7218 15.312 92.7058 15.312H95.2798V16.95H93.0118C92.3518 16.95 91.8958 17.058 91.6438 17.274C91.4038 17.49 91.2838 17.76 91.2838 18.084C91.2838 18.444 91.4218 18.732 91.6978 18.948C91.9858 19.152 92.3758 19.254 92.8678 19.254C93.3358 19.254 93.7558 19.146 94.1278 18.93C94.4998 18.702 94.7698 18.372 94.9378 17.94L95.3698 19.236C95.1658 19.86 94.7938 20.334 94.2538 20.658C93.7138 20.982 93.0178 21.144 92.1658 21.144Z" fill="#292D32"/>
</svg>
