<svg width="18" height="18" viewBox="0 0 18 18" fill="none" xmlns="http://www.w3.org/2000/svg">
<path d="M8.95834 14C9.25 14 9.49667 13.8992 9.69834 13.6975C9.90001 13.4959 10.0006 13.2495 10 12.9584C10 12.6667 9.89945 12.42 9.69834 12.2184C9.49723 12.0167 9.25056 11.9161 8.95834 11.9167C8.66667 11.9167 8.42028 12.0175 8.21917 12.2192C8.01806 12.4209 7.91723 12.6672 7.91667 12.9584C7.91667 13.25 8.0175 13.4967 8.21917 13.6984C8.42084 13.9 8.66723 14.0006 8.95834 14ZM8.20834 10.7917H9.75C9.75 10.3334 9.80223 9.97224 9.90667 9.70835C10.0111 9.44446 10.3061 9.08335 10.7917 8.62502C11.1528 8.26391 11.4375 7.92002 11.6458 7.59335C11.8542 7.26669 11.9583 6.87446 11.9583 6.41669C11.9583 5.63891 11.6736 5.04169 11.1042 4.62502C10.5347 4.20835 9.86112 4.00002 9.08334 4.00002C8.29167 4.00002 7.64945 4.20835 7.15667 4.62502C6.66389 5.04169 6.32 5.54169 6.12501 6.12502L7.5 6.66669C7.56945 6.41669 7.72584 6.14585 7.96917 5.85419C8.2125 5.56252 8.58389 5.41669 9.08334 5.41669C9.52778 5.41669 9.86112 5.53835 10.0833 5.78169C10.3056 6.02502 10.4167 6.29224 10.4167 6.58335C10.4167 6.86113 10.3333 7.12169 10.1667 7.36502C10 7.60835 9.79167 7.83391 9.54167 8.04169C8.93056 8.58335 8.55556 8.99308 8.41667 9.27085C8.27778 9.54863 8.20834 10.0556 8.20834 10.7917ZM9 17.3334C7.84723 17.3334 6.76389 17.1147 5.75001 16.6775C4.73612 16.2403 3.85417 15.6464 3.10417 14.8959C2.35417 14.1459 1.76056 13.2639 1.32334 12.25C0.886116 11.2361 0.667227 10.1528 0.666672 9.00002C0.666672 7.84724 0.885561 6.76391 1.32334 5.75002C1.76112 4.73613 2.35473 3.85419 3.10417 3.10419C3.85417 2.35419 4.73612 1.76058 5.75001 1.32335C6.76389 0.886132 7.84723 0.667243 9 0.666687C10.1528 0.666687 11.2361 0.885576 12.25 1.32335C13.2639 1.76113 14.1458 2.35474 14.8958 3.10419C15.6458 3.85419 16.2397 4.73613 16.6775 5.75002C17.1153 6.76391 17.3339 7.84724 17.3333 9.00002C17.3333 10.1528 17.1144 11.2361 16.6767 12.25C16.2389 13.2639 15.6453 14.1459 14.8958 14.8959C14.1458 15.6459 13.2639 16.2397 12.25 16.6775C11.2361 17.1153 10.1528 17.3339 9 17.3334ZM9 15.6667C10.8611 15.6667 12.4375 15.0209 13.7292 13.7292C15.0208 12.4375 15.6667 10.8611 15.6667 9.00002C15.6667 7.13891 15.0208 5.56252 13.7292 4.27085C12.4375 2.97919 10.8611 2.33335 9 2.33335C7.13889 2.33335 5.5625 2.97919 4.27084 4.27085C2.97917 5.56252 2.33334 7.13891 2.33334 9.00002C2.33334 10.8611 2.97917 12.4375 4.27084 13.7292C5.5625 15.0209 7.13889 15.6667 9 15.6667Z" fill="#A6A6A6"/>
</svg>
