<svg width="80" height="80" viewBox="0 0 80 80" fill="none" xmlns="http://www.w3.org/2000/svg">
<g clip-path="url(#clip0_3449_13587)">
<path d="M0 40C0 17.9086 17.9086 0 40 0C62.0914 0 80 17.9086 80 40C80 62.0914 62.0914 80 40 80C17.9086 80 0 62.0914 0 40Z" fill="#F7F8F9"/>
<path d="M10 66.7622C10 57.9257 17.1634 50.7622 26 50.7622H54C62.8366 50.7622 70 57.9257 70 66.7622V94.7622C70 103.599 62.8366 110.762 54 110.762H26C17.1634 110.762 10 103.599 10 94.7622V66.7622Z" fill="#A6A6A6"/>
<ellipse cx="39.5" cy="29" rx="15.5" ry="16" fill="#A6A6A6"/>
</g>
<defs>
<clipPath id="clip0_3449_13587">
<path d="M0 40C0 17.9086 17.9086 0 40 0C62.0914 0 80 17.9086 80 40C80 62.0914 62.0914 80 40 80C17.9086 80 0 62.0914 0 40Z" fill="white"/>
</clipPath>
</defs>
</svg>
